<svg width="123" height="123" viewBox="0 0 123 123" fill="#9dff2d" xmlns="http://www.w3.org/2000/svg">
<path fill-rule="evenodd" clip-rule="evenodd" d="M30.6987 61.1989C13.854 61.1989 0.19873 74.8542 0.19873 91.6989C0.19873 108.544 13.854 122.199 30.6987 122.199C47.5434 122.199 61.1987 108.544 61.1987 91.6989C61.1987 108.544 74.854 122.199 91.6987 122.199C108.543 122.199 122.199 108.544 122.199 91.6989C122.199 74.8542 108.543 61.1989 91.6987 61.1989C108.543 61.1989 122.199 47.5435 122.199 30.6989C122.199 13.8542 108.543 0.198853 91.6987 0.198853C74.854 0.198853 61.1987 13.8542 61.1987 30.6989C61.1987 13.8542 47.5434 0.198853 30.6987 0.198853C13.854 0.198853 0.19873 13.8542 0.19873 30.6989C0.19873 47.5435 13.854 61.1989 30.6987 61.1989Z"/>
</svg>
